# xmcd
#
# Track frame offsets: 
#        150
#        6525
#        18954
#        37553
#        49061
#        63965
#        82348
#        102319
#        116267
#        138242
#        160440
#        183690
#        206265
#
# Disc length: 3060 seconds
#
# Revision: 1
# Processed by: cddbd v1.5.2PL0 Copyright (c) Steve Scherf et al.
# Submitted via: ExactAudioCopy v1.0b1
#
DISCID=a70bf20d
DTITLE=Дверь в Лето - Леди Блюз
DYEAR=2007
DGENRE=Rock
TTITLE0=Intro
TTITLE1=Блюз Осенних дорог
TTITLE2=Про Птиц
TTITLE3=Четыре Брата
TTITLE4=Блюз Веселого Человека
TTITLE5=Дуть На Угли
TTITLE6=О том, О сем...
TTITLE7=Ветренная
TTITLE8=Моя Любовь
TTITLE9=Леди Блюз
TTITLE10=Возвращение-Блюз
TTITLE11=Ангел Молчания
TTITLE12=Солнце Надежды
EXTD=
EXTT0=
EXTT1=
EXTT2=
EXTT3=
EXTT4=
EXTT5=
EXTT6=
EXTT7=
EXTT8=
EXTT9=
EXTT10=
EXTT11=
EXTT12=
PLAYORDER=
